<svg width="40" height="40" viewBox="0 0 40 40" fill="none" xmlns="http://www.w3.org/2000/svg">
<mask id="mask0_10_21" style="mask-type:alpha" maskUnits="userSpaceOnUse" x="0" y="0" width="40" height="40">
<rect width="40" height="40" fill="#D9D9D9"/>
</mask>
<g mask="url(#mask0_10_21)">
<path d="M36.6667 10V30C36.6667 30.9167 36.3403 31.7014 35.6875 32.3542C35.0348 33.007 34.25 33.3334 33.3334 33.3334H6.66671C5.75004 33.3334 4.96532 33.007 4.31254 32.3542C3.65976 31.7014 3.33337 30.9167 3.33337 30V10C3.33337 9.08335 3.65976 8.29863 4.31254 7.64585C4.96532 6.99308 5.75004 6.66669 6.66671 6.66669H33.3334C34.25 6.66669 35.0348 6.99308 35.6875 7.64585C36.3403 8.29863 36.6667 9.08335 36.6667 10ZM6.66671 13.3334H33.3334V10H6.66671V13.3334ZM6.66671 20V30H33.3334V20H6.66671Z" fill="#1575EC"/>
</g>
</svg>
