<svg width="40" height="40" viewBox="0 0 40 40" fill="none" xmlns="http://www.w3.org/2000/svg">
<mask id="mask0_15_7" style="mask-type:alpha" maskUnits="userSpaceOnUse" x="0" y="0" width="40" height="40">
<rect width="40" height="40" fill="#D9D9D9"/>
</mask>
<g mask="url(#mask0_15_7)">
<path d="M20 15L14.1666 9.16665L20 3.33331L25.8333 9.16665L20 15ZM1.66663 33.3333V26.6666C1.66663 25.7222 1.99301 24.9305 2.64579 24.2916C3.29857 23.6528 4.08329 23.3333 4.99996 23.3333H10.4583C11.0138 23.3333 11.5416 23.4722 12.0416 23.75C12.5416 24.0278 12.9444 24.4028 13.25 24.875C14.0555 25.9583 15.0486 26.8055 16.2291 27.4166C17.4097 28.0278 18.6666 28.3333 20 28.3333C21.3611 28.3333 22.6319 28.0278 23.8125 27.4166C24.993 26.8055 25.9722 25.9583 26.75 24.875C27.1111 24.4028 27.5347 24.0278 28.0208 23.75C28.5069 23.4722 29.0139 23.3333 29.5416 23.3333H35C35.9444 23.3333 36.7361 23.6528 37.375 24.2916C38.0139 24.9305 38.3333 25.7222 38.3333 26.6666V33.3333H26.6666V29.5416C25.6944 30.2361 24.6458 30.7639 23.5208 31.125C22.3958 31.4861 21.2222 31.6666 20 31.6666C18.8055 31.6666 17.6388 31.4791 16.5 31.1041C15.3611 30.7291 14.3055 30.1944 13.3333 29.5V33.3333H1.66663ZM6.66663 21.6666C5.27774 21.6666 4.09718 21.1805 3.12496 20.2083C2.15274 19.2361 1.66663 18.0555 1.66663 16.6666C1.66663 15.25 2.15274 14.0625 3.12496 13.1041C4.09718 12.1458 5.27774 11.6666 6.66663 11.6666C8.08329 11.6666 9.27079 12.1458 10.2291 13.1041C11.1875 14.0625 11.6666 15.25 11.6666 16.6666C11.6666 18.0555 11.1875 19.2361 10.2291 20.2083C9.27079 21.1805 8.08329 21.6666 6.66663 21.6666ZM33.3333 21.6666C31.9444 21.6666 30.7638 21.1805 29.7916 20.2083C28.8194 19.2361 28.3333 18.0555 28.3333 16.6666C28.3333 15.25 28.8194 14.0625 29.7916 13.1041C30.7638 12.1458 31.9444 11.6666 33.3333 11.6666C34.75 11.6666 35.9375 12.1458 36.8958 13.1041C37.8541 14.0625 38.3333 15.25 38.3333 16.6666C38.3333 18.0555 37.8541 19.2361 36.8958 20.2083C35.9375 21.1805 34.75 21.6666 33.3333 21.6666Z" fill="#6EE7B7"/>
</g>
</svg>
