<svg width="46" height="28" viewBox="0 0 46 28" fill="none" xmlns="http://www.w3.org/2000/svg">
<path d="M7.836 3.72V11.34C7.836 11.78 7.616 12 7.176 12H6.168C5.968 12 5.816 11.956 5.712 11.868C5.608 11.772 5.512 11.632 5.424 11.448L3.132 7.104C3.036 6.92 2.94 6.716 2.844 6.492C2.756 6.268 2.68 6.052 2.616 5.844H2.484C2.508 6.06 2.528 6.28 2.544 6.504C2.56 6.72 2.568 6.936 2.568 7.152V12H0.828V4.38C0.828 3.94 1.052 3.72 1.5 3.72H2.496C2.688 3.72 2.832 3.768 2.928 3.864C3.032 3.952 3.132 4.088 3.228 4.272L5.448 8.484C5.544 8.668 5.644 8.872 5.748 9.096C5.852 9.32 5.952 9.552 6.048 9.792H6.192C6.168 9.552 6.148 9.32 6.132 9.096C6.124 8.864 6.12 8.636 6.12 8.412L6.108 3.72H7.836ZM11.1922 3.684C11.6402 3.684 12.0922 3.688 12.5482 3.696C13.0042 3.696 13.4522 3.704 13.8922 3.72C14.3322 3.736 14.7442 3.764 15.1282 3.804L15.0442 5.136H11.8642C11.6642 5.136 11.5122 5.188 11.4082 5.292C11.3122 5.396 11.2642 5.548 11.2642 5.748V9.972C11.2642 10.172 11.3122 10.324 11.4082 10.428C11.5122 10.532 11.6642 10.584 11.8642 10.584H15.0442L15.1282 11.916C14.7442 11.948 14.3322 11.976 13.8922 12C13.4522 12.016 13.0042 12.024 12.5482 12.024C12.0922 12.032 11.6402 12.036 11.1922 12.036C10.6642 12.036 10.2362 11.884 9.90816 11.58C9.58816 11.268 9.42816 10.864 9.42816 10.368V5.352C9.42816 4.848 9.58816 4.444 9.90816 4.14C10.2362 3.836 10.6642 3.684 11.1922 3.684ZM9.64416 7.044H14.6002V8.34H9.64416V7.044ZM23.0497 3.72L21.0097 7.752L23.2057 12H21.3337L19.2697 7.752L21.1897 3.72H23.0497ZM17.7337 3.72L19.6537 7.752L17.5897 12H15.7177L17.9017 7.752L15.8737 3.72H17.7337ZM20.3497 7.164V8.292H18.4657V7.164H20.3497ZM27.8443 3.72V12H26.0083V3.72H27.8443ZM30.3403 3.72V5.16H23.5243V3.72H30.3403Z" fill="#60A5FA"/>
<path d="M18.824 24V15.288H17.18V14.28H21.776V15.288H20.18V24H18.824ZM22.713 24V14.28H24.669C25.317 14.28 25.853 14.368 26.277 14.544C26.701 14.712 27.013 14.988 27.213 15.372C27.421 15.748 27.525 16.244 27.525 16.86C27.525 17.236 27.485 17.58 27.405 17.892C27.325 18.196 27.197 18.456 27.021 18.672C26.845 18.88 26.613 19.032 26.325 19.128L27.705 24H26.397L25.125 19.44H24.069V24H22.713ZM24.069 18.468H24.585C24.969 18.468 25.281 18.42 25.521 18.324C25.761 18.228 25.937 18.064 26.049 17.832C26.161 17.6 26.217 17.276 26.217 16.86C26.217 16.292 26.113 15.884 25.905 15.636C25.697 15.38 25.285 15.252 24.669 15.252H24.069V18.468ZM28.4077 24L30.4717 14.28H31.7797L33.8557 24H32.5717L32.1277 21.552H30.1477L29.6797 24H28.4077ZM30.3277 20.58H31.9477L31.1317 16.2L30.3277 20.58ZM34.8419 24V14.28H36.9539C37.6739 14.28 38.2419 14.392 38.6579 14.616C39.0819 14.832 39.3819 15.16 39.5579 15.6C39.7419 16.04 39.8339 16.588 39.8339 17.244V20.82C39.8339 21.508 39.7419 22.088 39.5579 22.56C39.3819 23.032 39.0899 23.392 38.6819 23.64C38.2819 23.88 37.7419 24 37.0619 24H34.8419ZM36.1979 23.028H36.9659C37.4619 23.028 37.8139 22.932 38.0219 22.74C38.2299 22.548 38.3539 22.268 38.3939 21.9C38.4419 21.532 38.4659 21.088 38.4659 20.568V17.412C38.4659 16.908 38.4339 16.5 38.3699 16.188C38.3059 15.876 38.1659 15.648 37.9499 15.504C37.7339 15.36 37.3939 15.288 36.9299 15.288H36.1979V23.028ZM41.1701 24V14.28H44.9381V15.288H42.5261V18.504H44.4821V19.464H42.5261V23.028H44.9621V24H41.1701Z" fill="#6EE7B7"/>
</svg>
