<svg width="40" height="40" viewBox="0 0 40 40" fill="none" xmlns="http://www.w3.org/2000/svg">
<mask id="mask0_13_29" style="mask-type:alpha" maskUnits="userSpaceOnUse" x="0" y="0" width="40" height="40">
<rect width="40" height="40" fill="#D9D9D9"/>
</mask>
<g mask="url(#mask0_13_29)">
<path d="M14 35C11.4722 35 9.34028 34.1319 7.60417 32.3958C5.86806 30.6597 5 28.5278 5 26C5 24.9444 5.18056 23.9167 5.54167 22.9167C5.90278 21.9167 6.41667 21.0139 7.08333 20.2083L13 13.0833L8.95833 5H31.0417L27 13.0833L32.9167 20.2083C33.5833 21.0139 34.0972 21.9167 34.4583 22.9167C34.8194 23.9167 35 24.9444 35 26C35 28.5278 34.125 30.6597 32.375 32.3958C30.625 34.1319 28.5 35 26 35H14ZM20 26.6667C19.0833 26.6667 18.2986 26.3403 17.6458 25.6875C16.9931 25.0347 16.6667 24.25 16.6667 23.3333C16.6667 22.4167 16.9931 21.6319 17.6458 20.9792C18.2986 20.3264 19.0833 20 20 20C20.9167 20 21.7014 20.3264 22.3542 20.9792C23.0069 21.6319 23.3333 22.4167 23.3333 23.3333C23.3333 24.25 23.0069 25.0347 22.3542 25.6875C21.7014 26.3403 20.9167 26.6667 20 26.6667ZM16.0417 11.6667H23.9583L25.625 8.33333H14.375L16.0417 11.6667ZM14 31.6667H26C27.5833 31.6667 28.9236 31.1181 30.0208 30.0208C31.1181 28.9236 31.6667 27.5833 31.6667 26C31.6667 25.3333 31.5486 24.6875 31.3125 24.0625C31.0764 23.4375 30.75 22.875 30.3333 22.375L24.2083 15H15.8333L9.66667 22.3333C9.25 22.8333 8.92361 23.4028 8.6875 24.0417C8.45139 24.6806 8.33333 25.3333 8.33333 26C8.33333 27.5833 8.88194 28.9236 9.97917 30.0208C11.0764 31.1181 12.4167 31.6667 14 31.6667Z" fill="#1575EC"/>
</g>
</svg>
