<svg width="28" height="10" viewBox="0 0 28 10" fill="none" xmlns="http://www.w3.org/2000/svg">
<path d="M1.824 10V1.288H0.18V0.279999H4.776V1.288H3.18V10H1.824ZM5.71303 10V0.279999H7.66903C8.31703 0.279999 8.85303 0.367999 9.27703 0.543999C9.70103 0.712 10.013 0.988 10.213 1.372C10.421 1.748 10.525 2.244 10.525 2.86C10.525 3.236 10.485 3.58 10.405 3.892C10.325 4.196 10.197 4.456 10.021 4.672C9.84503 4.88 9.61303 5.032 9.32503 5.128L10.705 10H9.39703L8.12503 5.44H7.06903V10H5.71303ZM7.06903 4.468H7.58503C7.96903 4.468 8.28103 4.42 8.52103 4.324C8.76103 4.228 8.93703 4.064 9.04903 3.832C9.16103 3.6 9.21703 3.276 9.21703 2.86C9.21703 2.292 9.11303 1.884 8.90503 1.636C8.69703 1.38 8.28503 1.252 7.66903 1.252H7.06903V4.468ZM11.4077 10L13.4717 0.279999H14.7797L16.8557 10H15.5717L15.1277 7.552H13.1477L12.6797 10H11.4077ZM13.3277 6.58H14.9477L14.1317 2.2L13.3277 6.58ZM17.8419 10V0.279999H19.9539C20.6739 0.279999 21.2419 0.391999 21.6579 0.615999C22.0819 0.831999 22.3819 1.16 22.5579 1.6C22.7419 2.04 22.8339 2.588 22.8339 3.244V6.82C22.8339 7.508 22.7419 8.088 22.5579 8.56C22.3819 9.032 22.0899 9.392 21.6819 9.64C21.2819 9.88 20.7419 10 20.0619 10H17.8419ZM19.1979 9.028H19.9659C20.4619 9.028 20.8139 8.932 21.0219 8.74C21.2299 8.548 21.3539 8.268 21.3939 7.9C21.4419 7.532 21.4659 7.088 21.4659 6.568V3.412C21.4659 2.908 21.4339 2.5 21.3699 2.188C21.3059 1.876 21.1659 1.648 20.9499 1.504C20.7339 1.36 20.3939 1.288 19.9299 1.288H19.1979V9.028ZM24.1701 10V0.279999H27.9381V1.288H25.5261V4.504H27.4821V5.464H25.5261V9.028H27.9621V10H24.1701Z" fill="#6EE7B7"/>
</svg>
