<svg width="40" height="40" viewBox="0 0 40 40" fill="none" xmlns="http://www.w3.org/2000/svg">
<mask id="mask0_16_13" style="mask-type:alpha" maskUnits="userSpaceOnUse" x="0" y="0" width="40" height="40">
<rect width="40" height="40" fill="#D9D9D9"/>
</mask>
<g mask="url(#mask0_16_13)">
<path d="M20 36.6666C17.7223 36.6666 15.5695 36.2291 13.5417 35.3541C11.5139 34.4791 9.7431 33.2847 8.22921 31.7708C6.71532 30.2569 5.52087 28.4861 4.64587 26.4583C3.77087 24.4305 3.33337 22.2778 3.33337 20C3.33337 17.6944 3.77087 15.5347 4.64587 13.5208C5.52087 11.5069 6.71532 9.74304 8.22921 8.22915C9.7431 6.71526 11.5139 5.52081 13.5417 4.64581C15.5695 3.77081 17.7223 3.33331 20 3.33331C22.3056 3.33331 24.4653 3.77081 26.4792 4.64581C28.4931 5.52081 30.257 6.71526 31.7709 8.22915C33.2848 9.74304 34.4792 11.5069 35.3542 13.5208C36.2292 15.5347 36.6667 17.6944 36.6667 20C36.6667 22.2778 36.2292 24.4305 35.3542 26.4583C34.4792 28.4861 33.2848 30.2569 31.7709 31.7708C30.257 33.2847 28.4931 34.4791 26.4792 35.3541C24.4653 36.2291 22.3056 36.6666 20 36.6666ZM20 33.25C20.7223 32.25 21.3473 31.2083 21.875 30.125C22.4028 29.0416 22.8334 27.8889 23.1667 26.6666H16.8334C17.1667 27.8889 17.5973 29.0416 18.125 30.125C18.6528 31.2083 19.2778 32.25 20 33.25ZM15.6667 32.5833C15.1667 31.6666 14.7292 30.7153 14.3542 29.7291C13.9792 28.743 13.6667 27.7222 13.4167 26.6666H8.50004C9.3056 28.0555 10.3125 29.2639 11.5209 30.2916C12.7292 31.3194 14.1112 32.0833 15.6667 32.5833ZM24.3334 32.5833C25.8889 32.0833 27.2709 31.3194 28.4792 30.2916C29.6875 29.2639 30.6945 28.0555 31.5 26.6666H26.5834C26.3334 27.7222 26.0209 28.743 25.6459 29.7291C25.2709 30.7153 24.8334 31.6666 24.3334 32.5833ZM7.08337 23.3333H12.75C12.6667 22.7778 12.6042 22.2291 12.5625 21.6875C12.5209 21.1458 12.5 20.5833 12.5 20C12.5 19.4166 12.5209 18.8541 12.5625 18.3125C12.6042 17.7708 12.6667 17.2222 12.75 16.6666H7.08337C6.94449 17.2222 6.84032 17.7708 6.77087 18.3125C6.70143 18.8541 6.66671 19.4166 6.66671 20C6.66671 20.5833 6.70143 21.1458 6.77087 21.6875C6.84032 22.2291 6.94449 22.7778 7.08337 23.3333ZM16.0834 23.3333H23.9167C24 22.7778 24.0625 22.2291 24.1042 21.6875C24.1459 21.1458 24.1667 20.5833 24.1667 20C24.1667 19.4166 24.1459 18.8541 24.1042 18.3125C24.0625 17.7708 24 17.2222 23.9167 16.6666H16.0834C16 17.2222 15.9375 17.7708 15.8959 18.3125C15.8542 18.8541 15.8334 19.4166 15.8334 20C15.8334 20.5833 15.8542 21.1458 15.8959 21.6875C15.9375 22.2291 16 22.7778 16.0834 23.3333ZM27.25 23.3333H32.9167C33.0556 22.7778 33.1598 22.2291 33.2292 21.6875C33.2987 21.1458 33.3334 20.5833 33.3334 20C33.3334 19.4166 33.2987 18.8541 33.2292 18.3125C33.1598 17.7708 33.0556 17.2222 32.9167 16.6666H27.25C27.3334 17.2222 27.3959 17.7708 27.4375 18.3125C27.4792 18.8541 27.5 19.4166 27.5 20C27.5 20.5833 27.4792 21.1458 27.4375 21.6875C27.3959 22.2291 27.3334 22.7778 27.25 23.3333ZM26.5834 13.3333H31.5C30.6945 11.9444 29.6875 10.7361 28.4792 9.70831C27.2709 8.68054 25.8889 7.91665 24.3334 7.41665C24.8334 8.33331 25.2709 9.2847 25.6459 10.2708C26.0209 11.2569 26.3334 12.2778 26.5834 13.3333ZM16.8334 13.3333H23.1667C22.8334 12.1111 22.4028 10.9583 21.875 9.87498C21.3473 8.79165 20.7223 7.74998 20 6.74998C19.2778 7.74998 18.6528 8.79165 18.125 9.87498C17.5973 10.9583 17.1667 12.1111 16.8334 13.3333ZM8.50004 13.3333H13.4167C13.6667 12.2778 13.9792 11.2569 14.3542 10.2708C14.7292 9.2847 15.1667 8.33331 15.6667 7.41665C14.1112 7.91665 12.7292 8.68054 11.5209 9.70831C10.3125 10.7361 9.3056 11.9444 8.50004 13.3333Z" fill="#6EE7B7"/>
</g>
</svg>
