<svg width="31" height="10" viewBox="0 0 31 10" fill="none" xmlns="http://www.w3.org/2000/svg">
<path d="M7.836 0.719999V8.34C7.836 8.78 7.616 9 7.176 9H6.168C5.968 9 5.816 8.956 5.712 8.868C5.608 8.772 5.512 8.632 5.424 8.448L3.132 4.104C3.036 3.92 2.94 3.716 2.844 3.492C2.756 3.268 2.68 3.052 2.616 2.844H2.484C2.508 3.06 2.528 3.28 2.544 3.504C2.56 3.72 2.568 3.936 2.568 4.152V9H0.828V1.38C0.828 0.939999 1.052 0.719999 1.5 0.719999H2.496C2.688 0.719999 2.832 0.767999 2.928 0.864C3.032 0.951999 3.132 1.088 3.228 1.272L5.448 5.484C5.544 5.668 5.644 5.872 5.748 6.096C5.852 6.32 5.952 6.552 6.048 6.792H6.192C6.168 6.552 6.148 6.32 6.132 6.096C6.124 5.864 6.12 5.636 6.12 5.412L6.108 0.719999H7.836ZM11.1922 0.684C11.6402 0.684 12.0922 0.688 12.5482 0.696C13.0042 0.696 13.4522 0.704 13.8922 0.719999C14.3322 0.736 14.7442 0.764 15.1282 0.804L15.0442 2.136H11.8642C11.6642 2.136 11.5122 2.188 11.4082 2.292C11.3122 2.396 11.2642 2.548 11.2642 2.748V6.972C11.2642 7.172 11.3122 7.324 11.4082 7.428C11.5122 7.532 11.6642 7.584 11.8642 7.584H15.0442L15.1282 8.916C14.7442 8.948 14.3322 8.976 13.8922 9C13.4522 9.016 13.0042 9.024 12.5482 9.024C12.0922 9.032 11.6402 9.036 11.1922 9.036C10.6642 9.036 10.2362 8.884 9.90816 8.58C9.58816 8.268 9.42816 7.864 9.42816 7.368V2.352C9.42816 1.848 9.58816 1.444 9.90816 1.14C10.2362 0.836 10.6642 0.684 11.1922 0.684ZM9.64416 4.044H14.6002V5.34H9.64416V4.044ZM23.0497 0.719999L21.0097 4.752L23.2057 9H21.3337L19.2697 4.752L21.1897 0.719999H23.0497ZM17.7337 0.719999L19.6537 4.752L17.5897 9H15.7177L17.9017 4.752L15.8737 0.719999H17.7337ZM20.3497 4.164V5.292H18.4657V4.164H20.3497ZM27.8443 0.719999V9H26.0083V0.719999H27.8443ZM30.3403 0.719999V2.16H23.5243V0.719999H30.3403Z" fill="#60A5FA"/>
</svg>
