<svg width="40" height="40" viewBox="0 0 40 40" fill="none" xmlns="http://www.w3.org/2000/svg">
<mask id="mask0_13_37" style="mask-type:alpha" maskUnits="userSpaceOnUse" x="0" y="0" width="40" height="40">
<rect width="40" height="40" fill="#D9D9D9"/>
</mask>
<g mask="url(#mask0_13_37)">
<path d="M11.6667 38.3334C10.75 38.3334 9.96532 38.007 9.31254 37.3542C8.65976 36.7014 8.33337 35.9167 8.33337 35V5.00002C8.33337 4.08335 8.65976 3.29863 9.31254 2.64585C9.96532 1.99308 10.75 1.66669 11.6667 1.66669H28.3334C29.25 1.66669 30.0348 1.99308 30.6875 2.64585C31.3403 3.29863 31.6667 4.08335 31.6667 5.00002V35C31.6667 35.9167 31.3403 36.7014 30.6875 37.3542C30.0348 38.007 29.25 38.3334 28.3334 38.3334H11.6667ZM11.6667 33.3334V35H28.3334V33.3334H11.6667ZM11.6667 30H28.3334V10H11.6667V30ZM11.6667 6.66669H28.3334V5.00002H11.6667V6.66669Z" fill="#1575EC"/>
</g>
</svg>
